<?xml version="1.0" encoding="utf-8"?>
<!-- Generator: Adobe Illustrator 22.1.0, SVG Export Plug-In . SVG Version: 6.00 Build 0)  -->
<svg version="1.1" id="Layer_10" xmlns="http://www.w3.org/2000/svg" xmlns:xlink="http://www.w3.org/1999/xlink" x="0px" y="0px"
	 viewBox="0 0 25.4 25.4" style="enable-background:new 0 0 25.4 25.4;" xml:space="preserve">
<style type="text/css">
	.st0{fill:#666666;}
</style>
<title>vegetariano</title>
<g>
	<path class="st0" d="M5.9,6.7C5.8,6.7,5.8,6.7,5.9,6.7c-0.1,0-0.2,0-0.2,0c-0.1,0-0.1,0.1-0.1,0.2c0,0-0.3,1.6-0.3,3.7
		c0,2.8,0.6,4.9,1.8,6.2c1.1,1.3,2.7,1.9,4.8,1.7c0.1,0,0.2-0.1,0.2-0.2c0.1-0.2,0.2-0.3,0.3-0.4c1.1-1.6,1.4-3.5,0.6-5.4
		C11.9,9.9,8.9,7.4,5.9,6.7z M11.8,17.7C11.8,17.7,11.8,17.8,11.8,17.7l-0.1,0.2l-0.1-0.1c-0.7-0.7-2.4-2.8-3.8-7.6
		c0-0.2-0.2-0.2-0.4-0.2c-0.2,0-0.2,0.2-0.2,0.4c1.3,4.4,2.9,6.6,3.7,7.5l0.1,0.1l-0.2,0c-1.4-0.1-2.6-0.6-3.4-1.5
		C5.2,14,5.8,8.9,6,7.5l0-0.1l0.1,0c2.7,0.8,5.3,3,6.2,5.4C13,14.6,12.8,16.2,11.8,17.7z"/>
	<path class="st0" d="M20,10.1c0-0.1-0.1-0.1-0.1-0.2c-0.1,0-0.1-0.1-0.2-0.1c0,0,0,0-0.1,0c-2.3,0.4-4.7,2.3-5.5,4.3
		c-0.6,1.5-0.4,2.9,0.5,4.2l0,0c0,0,0,0,0,0.1c0,0.1,0.1,0.1,0.2,0.1c1.5,0.2,2.8-0.2,3.6-1.1C20.8,15.1,20.1,10.3,20,10.1z
		 M18.2,17c-0.6,0.6-1.3,0.9-2.2,1l-0.2,0l0.1-0.1c0.7-0.8,1.8-2.4,2.8-5.3c0.1-0.2,0-0.3-0.2-0.4c-0.1,0-0.2,0-0.2,0
		c-0.1,0-0.1,0.1-0.2,0.2c-1.2,3.4-2.4,4.9-2.9,5.4l-0.1,0.1l-0.1-0.1c-0.7-1.1-0.8-2.2-0.3-3.4c0.7-1.7,2.7-3.4,4.7-3.9l0.1,0
		l0,0.1C19.7,12,19.8,15.3,18.2,17z"/>
	<path class="st0" d="M12.7,25.4C5.7,25.4,0,19.7,0,12.7S5.7,0,12.7,0s12.7,5.7,12.7,12.7S19.7,25.4,12.7,25.4z M12.7,0.6
		C6,0.6,0.6,6,0.6,12.7S6,24.7,12.7,24.7s12.1-5.4,12.1-12.1S19.3,0.6,12.7,0.6z"/>
</g>
</svg>
