<svg id="Layer_8" data-name="Layer 8" xmlns="http://www.w3.org/2000/svg" viewBox="0 0 25.37 25.37"><defs><style>.cls-1{fill:#666;}</style></defs><title>organico</title><path class="cls-1" d="M45.34,155.51H45.28a0.3,0.3,0,0,0-.29.24,20,20,0,0,0-.34,3.75c0,2.78.61,4.88,1.8,6.24a5.5,5.5,0,0,0,4.77,1.72,0.3,0.3,0,0,0,.24-0.17l0.32-.43a5.56,5.56,0,0,0,.62-5.42A10.47,10.47,0,0,0,45.34,155.51Zm6,11-0.06.08-0.09.12-0.06-.06c-0.68-.68-2.4-2.8-3.82-7.63a0.3,0.3,0,0,0-.37-0.2,0.3,0.3,0,0,0-.2.37c1.3,4.41,2.85,6.62,3.67,7.55l0.12,0.14H50.28a4.63,4.63,0,0,1-3.39-1.53c-2.23-2.56-1.63-7.6-1.39-9.08l0-.09,0.08,0a10,10,0,0,1,6.25,5.45A5,5,0,0,1,51.29,166.5Z" transform="translate(-39.47 -148.79)"/><path class="cls-1" d="M59.51,158.88a0.29,0.29,0,0,0-.12-0.19,0.3,0.3,0,0,0-.17-0.06H59.17a7.83,7.83,0,0,0-5.5,4.31,4.19,4.19,0,0,0,.55,4.24v0l0,0.07a0.29,0.29,0,0,0,.21.12,4.11,4.11,0,0,0,3.64-1.14C60.31,163.93,59.55,159.08,59.51,158.88Zm-1.84,7a3.25,3.25,0,0,1-2.25,1H55.24l0.13-.14a15.43,15.43,0,0,0,2.79-5.3,0.3,0.3,0,0,0-.57-0.19,13.72,13.72,0,0,1-2.95,5.38l-0.07.07-0.05-.08a3.59,3.59,0,0,1-.3-3.4,7.23,7.23,0,0,1,4.65-3.86l0.09,0v0.09C59.13,160.75,59.3,164.13,57.68,165.83Z" transform="translate(-39.47 -148.79)"/><path class="cls-1" d="M52.16,174.17a12.69,12.69,0,1,1,12.69-12.69A12.7,12.7,0,0,1,52.16,174.17Zm0-24.74a12.06,12.06,0,1,0,12.06,12.06A12.07,12.07,0,0,0,52.16,149.42Z" transform="translate(-39.47 -148.79)"/></svg>