<svg id="Layer_3" data-name="Layer 3" xmlns="http://www.w3.org/2000/svg" viewBox="0 0 25.37 25.37"><defs><style>.cls-1{fill:#666;}</style></defs><title>paleo</title><path class="cls-1" d="M196.51,174.3a12.69,12.69,0,1,1,12.69-12.69A12.7,12.7,0,0,1,196.51,174.3Zm0-24.74a12.06,12.06,0,1,0,12.06,12.06A12.07,12.07,0,0,0,196.51,149.56Z" transform="translate(-183.82 -148.93)"/><path class="cls-1" d="M202.68,168.65a0.86,0.86,0,0,1-.61-0.25,2.85,2.85,0,0,0-2-.56H199.8a3,3,0,0,1-2.85-2.12v0a1.72,1.72,0,0,0-.43-0.91,2.42,2.42,0,0,0-.8-0.33h0a2.94,2.94,0,0,1-1-.51,3,3,0,0,1-1-1.49v0a1.72,1.72,0,0,0-.43-0.91,2.34,2.34,0,0,0-.8-0.33h0a3,3,0,0,1-2.12-2.84c0-.07,0-0.15,0-0.22a3.16,3.16,0,0,0-.53-2h0a0.86,0.86,0,0,1-.26-0.62,0.87,0.87,0,0,1,1.48-.62,2.85,2.85,0,0,0,2,.56h0.25a3,3,0,0,1,2.85,2.12v0a1.72,1.72,0,0,0,.43.91,2.34,2.34,0,0,0,.8.33h0a2.94,2.94,0,0,1,1,.51,3,3,0,0,1,1,1.49v0a1.72,1.72,0,0,0,.44.91,2.34,2.34,0,0,0,.8.33h0a3,3,0,0,1,2.12,2.84c0,0.07,0,.15,0,0.22a3.16,3.16,0,0,0,.53,2A0.87,0.87,0,0,1,202.68,168.65ZM200,167.18h0a3.53,3.53,0,0,1,2.49.74,0.2,0.2,0,0,0,.34-0.13,0.2,0.2,0,0,0-.06-0.14,3.58,3.58,0,0,1-.74-2.52,0.33,0.33,0,0,1,0,0c0-.06,0-0.12,0-0.18a2.32,2.32,0,0,0-1.67-2.21h0a2.85,2.85,0,0,1-1-.45,2.25,2.25,0,0,1-.65-1.21v0a2.3,2.3,0,0,0-.8-1.18,2.27,2.27,0,0,0-.78-0.4h0a2.84,2.84,0,0,1-1-.45,2.25,2.25,0,0,1-.64-1.21v0a2.32,2.32,0,0,0-2.21-1.67H193a3.53,3.53,0,0,1-2.49-.74,0.2,0.2,0,0,0-.34.13,0.2,0.2,0,0,0,.06.14l0,0a3.68,3.68,0,0,1,.72,2.5,0.33,0.33,0,0,1,0,0c0,0.06,0,.12,0,0.18a2.32,2.32,0,0,0,1.67,2.21h0a2.84,2.84,0,0,1,1,.45,2.25,2.25,0,0,1,.65,1.21v0a2.3,2.3,0,0,0,.8,1.18,2.28,2.28,0,0,0,.78.4h0a2.84,2.84,0,0,1,1,.45,2.25,2.25,0,0,1,.64,1.21v0a2.32,2.32,0,0,0,2.21,1.67H200Z" transform="translate(-183.82 -148.93)"/><path class="cls-1" d="M199.8,166.63a1.72,1.72,0,1,1,1.72-1.72A1.72,1.72,0,0,1,199.8,166.63Zm0-2.77a1.05,1.05,0,1,0,1.05,1.05A1.05,1.05,0,0,0,199.8,163.85Z" transform="translate(-183.82 -148.93)"/><path class="cls-1" d="M196.52,163.35a1.72,1.72,0,1,1,1.72-1.72A1.72,1.72,0,0,1,196.52,163.35Zm0-2.77a1.05,1.05,0,1,0,1.05,1.05A1.05,1.05,0,0,0,196.52,160.57Z" transform="translate(-183.82 -148.93)"/><path class="cls-1" d="M193.24,160.07a1.72,1.72,0,1,1,1.72-1.72A1.72,1.72,0,0,1,193.24,160.07Zm0-2.77a1.05,1.05,0,1,0,1.05,1.05A1.05,1.05,0,0,0,193.24,157.29Z" transform="translate(-183.82 -148.93)"/></svg>