<svg id="Layer_11" data-name="Layer 11" xmlns="http://www.w3.org/2000/svg" viewBox="0 0 25.37 25.37"><defs><style>.cls-1{fill:#666;}</style></defs><title>sem-lactose</title><path class="cls-1" d="M198.68,96.9V96.31l0,0a1.25,1.25,0,0,0-.65-2.31H195a1.25,1.25,0,0,0-.65,2.31l0,0V96.9l0,0-1.59,2.16a1.72,1.72,0,0,0-.47,1.18v8.37a1.71,1.71,0,0,0,1.71,1.71h5.08a1.71,1.71,0,0,0,1.71-1.71v-8.37a1.72,1.72,0,0,0-.49-1.19Zm1.49,11.72a1.12,1.12,0,0,1-1.12,1.12H194a1.12,1.12,0,0,1-1.12-1.12v-8.37a1.12,1.12,0,0,1,.32-0.78h0l1.75-2.36v-1.2a0.66,0.66,0,0,1,0-1.32h3.11a0.66,0.66,0,0,1,0,1.32v1.21l1.74,2.35a1.09,1.09,0,0,1,.34.8v8.37Z" transform="translate(-183.82 -89.46)"/><polygon class="cls-1" points="2.54 19.79 2.22 19.25 8.54 15.49 8.87 16.03 2.54 19.79"/><rect class="cls-1" x="199.84" y="98.17" width="8.19" height="0.63" transform="translate(-205.48 28.93) rotate(-30.82)"/><path class="cls-1" d="M196.51,114.84a12.69,12.69,0,1,1,12.69-12.69A12.7,12.7,0,0,1,196.51,114.84Zm0-24.74a12.06,12.06,0,1,0,12.06,12.06A12.07,12.07,0,0,0,196.51,90.09Z" transform="translate(-183.82 -89.46)"/><polygon class="cls-1" points="1.9 18.72 1.58 18.18 8.64 13.99 8.96 14.53 1.9 18.72"/><polygon class="cls-1" points="16.28 10.2 15.96 9.66 22.83 5.58 23.16 6.12 16.28 10.2"/></svg>