<svg id="Layer_16" data-name="Layer 16" xmlns="http://www.w3.org/2000/svg" viewBox="0 0 25.37 25.37"><defs><style>.cls-1{fill:#666;}</style></defs><title>sem-corantes</title><path class="cls-1" d="M200.92,52.32h0a2.52,2.52,0,0,1-1.15-2c-0.1-1.76-.52-2.1-1.41-2.65l-0.1-.06V47.58a15.32,15.32,0,0,0-.73-2.66c-0.56-1.55-3.49-7.76-4.07-9l0-.05a0.82,0.82,0,0,0-.52-0.34l-0.17,0a0.82,0.82,0,0,0-.45.13,0.84,0.84,0,0,0-.36.82v0c0.58,1.86,2.48,7.94,3,9.28a15.93,15.93,0,0,0,1.31,2.45l0,0.06,0,0.07c-0.55,1.87.17,3.07,2.26,3.78l2.1,0.71A0.3,0.3,0,1,0,200.92,52.32Zm-5.17-6.23-0.07-.16-0.22-.51-0.05-.14C195,44.13,194,41,192.58,36.61l-0.08-.24v0a0.24,0.24,0,0,1,.11-0.2,0.27,0.27,0,0,1,.29,0l0,0.05c0,0.06,3,6.43,3.89,8.55l0.06,0.15,0.19,0.52,0,0.15a14.82,14.82,0,0,1,.51,1.92l0,0.14-0.9.3-0.07-.1A16.32,16.32,0,0,1,195.75,46.09Zm3.41,5.38a0.4,0.4,0,0,1-.28.09,2.49,2.49,0,0,1-.77-0.2h0a2.05,2.05,0,0,1-1.23-2.79l0-.08,1.06-.34,0.1,0.06c0.82,0.51,1.05.73,1.13,2.19a3.09,3.09,0,0,0,.07.48A0.59,0.59,0,0,1,199.16,51.47Z" transform="translate(-183.82 -31.52)"/><rect class="cls-1" x="185.47" y="48.05" width="10.5" height="0.63" transform="matrix(0.86, -0.51, 0.51, 0.86, -181.79, 72.62)"/><rect class="cls-1" x="196.26" y="41.21" width="12.03" height="0.63" transform="translate(-176.67 77.57) rotate(-30.7)"/><path class="cls-1" d="M196.51,56.9A12.69,12.69,0,1,1,209.2,44.21,12.7,12.7,0,0,1,196.51,56.9Zm0-24.74a12.06,12.06,0,1,0,12.06,12.06A12.07,12.07,0,0,0,196.51,32.15Z" transform="translate(-183.82 -31.52)"/><rect class="cls-1" x="184.82" y="46.91" width="10.75" height="0.63" transform="translate(-181.28 72.19) rotate(-30.7)"/><rect class="cls-1" x="195.75" y="40.09" width="11.9" height="0.63" transform="translate(-176.19 77.11) rotate(-30.7)"/></svg>