<svg id="Camada_1" data-name="Camada 1" xmlns="http://www.w3.org/2000/svg" viewBox="0 0 25.37 25.37"><defs><style>.cls-1{fill:#666;}</style></defs><title>sem-aromatizantes</title><path class="cls-1" d="M52.16,56.9A12.69,12.69,0,1,1,64.84,44.21,12.7,12.7,0,0,1,52.16,56.9Zm0-24.74A12.06,12.06,0,1,0,64.21,44.21,12.07,12.07,0,0,0,52.16,32.15Z" transform="translate(-39.47 -31.52)"/><path class="cls-1" d="M48.43,53.07c-0.06-.08-1.34-2,0.75-5.48a4.17,4.17,0,0,0,.71-3.37,2.19,2.19,0,0,0-1.39-1.31,1.64,1.64,0,0,0-1.78.31,1.87,1.87,0,0,0-.49,1.85,1.4,1.4,0,0,0,1.28.94,1,1,0,0,0,1.1-.52,1.22,1.22,0,0,0-.21-1.33,1,1,0,0,0-1.18,0l-0.31-.54a1.52,1.52,0,0,1,1.92,0,1.83,1.83,0,0,1,.36,2.05,1.58,1.58,0,0,1-1.75.88,2,2,0,0,1-1.8-1.36,2.51,2.51,0,0,1,.65-2.51,2.25,2.25,0,0,1,2.44-.45A2.79,2.79,0,0,1,50.49,44a4.7,4.7,0,0,1-.77,3.91c-1.86,3.13-.82,4.73-0.78,4.79Z" transform="translate(-39.47 -31.52)"/><path class="cls-1" d="M53.74,53a4,4,0,0,1,.07-3.72,3.05,3.05,0,0,1,2.43-1.41A2.26,2.26,0,0,1,58.46,49a2.51,2.51,0,0,1-.08,2.59,2,2,0,0,1-2.11.8,1.58,1.58,0,0,1-1.44-1.33,1.83,1.83,0,0,1,.92-1.87,1.53,1.53,0,0,1,1.85.5l-0.45.44A1,1,0,0,0,56,49.75,1.22,1.22,0,0,0,55.46,51a1,1,0,0,0,.92.8,1.41,1.41,0,0,0,1.49-.54,1.86,1.86,0,0,0,0-1.92,1.63,1.63,0,0,0-1.62-.8,2.44,2.44,0,0,0-1.94,1.11,3.45,3.45,0,0,0,0,3.15Z" transform="translate(-39.47 -31.52)"/><path class="cls-1" d="M51.09,53.06c-0.08-.12-1.8-3.09,2-7.45,2.1-2.41,3.14-5.14,2.72-7.13A3,3,0,0,0,54,36.26a3.35,3.35,0,0,0-3.64.22,3.15,3.15,0,0,0-1.23,2.93,2.75,2.75,0,0,0,2,2.12A2,2,0,0,0,53.59,41a2.32,2.32,0,0,0,.1-2.57,2,2,0,0,0-2.4-.56l-0.17-.6a2.64,2.64,0,0,1,3.09.81,2.94,2.94,0,0,1-.11,3.3,2.6,2.6,0,0,1-3.08.79,3.36,3.36,0,0,1-2.47-2.62A3.74,3.74,0,0,1,50,36a4.05,4.05,0,0,1,4.28-.29,3.68,3.68,0,0,1,2.11,2.66c0.46,2.18-.63,5.12-2.86,7.67-3.49,4-1.94,6.68-1.92,6.71Z" transform="translate(-39.47 -31.52)"/><polygon class="cls-1" points="1.9 18.72 1.58 18.18 7.81 14.45 8.13 14.98 1.9 18.72"/><rect class="cls-1" x="41.15" y="48.21" width="9.79" height="0.63" transform="translate(-57.87 -0.95) rotate(-30.94)"/><rect class="cls-1" x="55.29" y="39.01" width="7.69" height="0.63" transform="translate(-51.23 3.71) rotate(-30.32)"/><rect class="cls-1" x="54.51" y="40.47" width="9.22" height="0.63" transform="translate(-51.98 4.05) rotate(-30.44)"/></svg>