<svg id="Layer_13" data-name="Layer 13" xmlns="http://www.w3.org/2000/svg" viewBox="0 0 25.37 25.37"><defs><style>.cls-1{fill:#666;}</style></defs><title>sem-acucar</title><path class="cls-1" d="M60.06,104.86L57,101.36a0.29,0.29,0,0,0-.19-0.1L54,100.94l0.69-4.52a0.3,0.3,0,0,0-.15-0.31L50.44,93.8a0.3,0.3,0,0,0-.22,0l-4.56,1a0.3,0.3,0,0,0-.23.25l-0.89,5.84a0.3,0.3,0,0,0,.15.31l4.05,2.31a0.32,0.32,0,0,0,.21,0l1.72-.37-1.57,3a0.3,0.3,0,0,0,0,.34l3.09,3.5a0.28,0.28,0,0,0,.19.1l4.64,0.53a0.3,0.3,0,0,0,.3-0.16l2.73-5.24A0.31,0.31,0,0,0,60.06,104.86Zm-3.47-3,2.49,2.82-3.74-.42-2.49-2.82Zm-6.35-7.47,0,0,3.23,1.84-3.67.8,0,0-3.23-1.84Zm-5.07,6.36v-0.08L46,95.54l3.49,2v0.08l-0.78,5.12Zm4.09,2.08,0-.17,0.77-5,0.08,0L54,96.76l0,0.17-0.6,3.94-1.21-.14a0.3,0.3,0,0,0-.3.16L51,102.43H51Zm3.14,6.42-2.66-3,0-.07,2.39-4.59,2.66,3,0,0.07ZM56.93,110H56.85l-3.91-.45,2.43-4.66h0.08l3.91,0.45Z" transform="translate(-39.47 -89.46)"/><rect class="cls-1" x="41.11" y="106" width="10.43" height="0.63" transform="translate(-87.39 -50.72) rotate(-30.82)"/><polygon class="cls-1" points="15.45 12.15 15.13 11.61 23.47 6.66 23.79 7.2 15.45 12.15"/><path class="cls-1" d="M52.16,114.84a12.69,12.69,0,1,1,12.69-12.69A12.7,12.7,0,0,1,52.16,114.84Zm0-24.74a12.06,12.06,0,1,0,12.06,12.06A12.07,12.07,0,0,0,52.16,90.09Z" transform="translate(-39.47 -89.46)"/><polygon class="cls-1" points="1.9 18.72 1.58 18.18 9.51 13.42 9.83 13.96 1.9 18.72"/><rect class="cls-1" x="53" y="97.59" width="10.17" height="0.63" transform="translate(-81.2 -46.3) rotate(-30.58)"/></svg>