<svg id="Layer_17" data-name="Layer 17" xmlns="http://www.w3.org/2000/svg" viewBox="0 0 25.37 25.37"><defs><style>.cls-1{fill:#666;}</style></defs><title>sem-conservantes</title><path class="cls-1" d="M124.46,56.9a12.69,12.69,0,1,1,12.69-12.69A12.7,12.7,0,0,1,124.46,56.9Zm0-24.74a12.06,12.06,0,1,0,12.06,12.06A12.07,12.07,0,0,0,124.46,32.15Z" transform="translate(-111.77 -31.52)"/><polygon class="cls-1" points="1.9 18.72 1.58 18.18 9.42 13.54 9.74 14.08 1.9 18.72"/><rect class="cls-1" x="113.67" y="49" width="6.77" height="0.63" transform="translate(-120.54 35.15) rotate(-30.7)"/><polygon class="cls-1" points="14.85 11.04 14.53 10.5 22.83 5.58 23.15 6.12 14.85 11.04"/><rect class="cls-1" x="125.73" y="40.79" width="10.4" height="0.63" transform="translate(-114.41 41.08) rotate(-30.7)"/><path class="cls-1" d="M130.62,49.79l-3.83-6.31V37.67H127a1.15,1.15,0,0,0,0-2.27h-5.12a1.15,1.15,0,0,0,0,2.27h0.23V43.5l-3.82,6.29a2.17,2.17,0,0,0-.23,2.22,2.33,2.33,0,0,0,2.16,1h8.44a2.33,2.33,0,0,0,2.16-1A2.17,2.17,0,0,0,130.62,49.79Zm-0.29,1.93a1.8,1.8,0,0,1-1.64.7h-8.44a1.8,1.8,0,0,1-1.64-.7,1.61,1.61,0,0,1,.22-1.62l3.92-6.46V37.07h-0.83a0.57,0.57,0,0,1,0-1.07H127a0.57,0.57,0,0,1,0,1.07h-0.83v6.57l3.92,6.46A1.61,1.61,0,0,1,130.32,51.72Z" transform="translate(-111.77 -31.52)"/><path class="cls-1" d="M127.54,47.38h-6.18l-1.9,3.13a1,1,0,0,0-.2.84,1.14,1.14,0,0,0,1,.3h8.44a1.14,1.14,0,0,0,1-.3,1,1,0,0,0-.2-0.84Zm1.25,3.6H120L121.74,48h5.43l0,0L128.94,51h-0.15Z" transform="translate(-111.77 -31.52)"/></svg>