<svg id="Layer_15" data-name="Layer 15" xmlns="http://www.w3.org/2000/svg" viewBox="0 0 25.37 25.37"><defs><style>.cls-1{fill:#666;}</style></defs><title>sem-adocantes</title><polygon class="cls-1" points="2.54 19.79 2.22 19.25 8.39 15.59 8.71 16.13 2.54 19.79"/><polygon class="cls-1" points="17.69 10.81 17.37 10.27 23.47 6.66 23.79 7.2 17.69 10.81"/><path class="cls-1" d="M268.48,56.9a12.69,12.69,0,1,1,12.69-12.69A12.7,12.7,0,0,1,268.48,56.9Zm0-24.74a12.06,12.06,0,1,0,12.06,12.06A12.07,12.07,0,0,0,268.48,32.15Z" transform="translate(-255.8 -31.52)"/><polygon class="cls-1" points="1.9 18.72 1.58 18.18 7.67 14.57 7.99 15.11 1.9 18.72"/><polygon class="cls-1" points="16.99 9.77 16.67 9.23 22.83 5.58 23.15 6.12 16.99 9.77"/><path class="cls-1" d="M276.2,46.71a2.59,2.59,0,0,0-1.67-1,0.16,0.16,0,0,1-.12-0.17c0-.19,0-0.35,0-0.51A7.13,7.13,0,0,0,268,38.15H268a0.16,0.16,0,0,1-.15-0.15c-0.08-1.22-.68-2.07-1.49-2.13a1.27,1.27,0,0,0-.3,0,1.84,1.84,0,0,0-1.15.8,0.16,0.16,0,0,1-.21,0,3.21,3.21,0,0,0-1.43-.5h-0.17a1.77,1.77,0,0,0-1.18.42,2.32,2.32,0,0,0-.33,2.74,0.16,0.16,0,0,1-.07.2,1.81,1.81,0,0,0-.9,1,1.25,1.25,0,0,0,.16,1.11,2.57,2.57,0,0,0,1.68,1,0.16,0.16,0,0,1,.12.17,7.09,7.09,0,0,0,6.36,7.45H269a0.2,0.2,0,0,1,.19.15c0.08,1.22.68,2.07,1.5,2.13h0.06l0.25,0a1.82,1.82,0,0,0,1.09-.75,0.16,0.16,0,0,1,.21,0,3.19,3.19,0,0,0,1.4.48h0.19a1.73,1.73,0,0,0,1.16-.43,2.32,2.32,0,0,0,.3-2.75,0.16,0.16,0,0,1,.07-0.2,1.84,1.84,0,0,0,1-1A1.26,1.26,0,0,0,276.2,46.71Zm-1.79,1.88,0.19,0.32a2,2,0,0,1,0,2.44,1.19,1.19,0,0,1-.8.27h-0.12a2.84,2.84,0,0,1-1.47-.63L272,50.76l-0.17.31a1.51,1.51,0,0,1-.93.85h-0.12a1.37,1.37,0,0,1-1-1.47,0.16,0.16,0,0,1,.14-0.17,5.12,5.12,0,0,0,4.42-3.83,0.16,0.16,0,0,1,.08-0.1l0.07,0h0a2,2,0,0,1,1.18.68,0.66,0.66,0,0,1,.09.59,1.53,1.53,0,0,1-1,.83Zm-0.58-3.51a4.58,4.58,0,0,1-1.53,3.54,4.51,4.51,0,0,1-3,1.06H269a6.53,6.53,0,0,1-5.83-6.25,4.58,4.58,0,0,1,1.53-3.6,4.48,4.48,0,0,1,3-1.07H268A6.53,6.53,0,0,1,273.83,45.07Zm-11.34-5.24-0.17-.31a2,2,0,0,1,0-2.42,1.2,1.2,0,0,1,.8-0.27h0.11a2.85,2.85,0,0,1,1.5.65l0.25,0.2,0,0,0.17-.33a1.55,1.55,0,0,1,1-.91h0.11a1.36,1.36,0,0,1,1,1.45,0.16,0.16,0,0,1-.14.17,5.1,5.1,0,0,0-4.42,3.83,0.15,0.15,0,0,1-.15.12h0a1.94,1.94,0,0,1-1.2-.69,0.66,0.66,0,0,1-.09-0.59,1.49,1.49,0,0,1,1-.8Z" transform="translate(-255.8 -31.52)"/></svg>