<svg id="Layer_9" data-name="Layer 9" xmlns="http://www.w3.org/2000/svg" viewBox="0 0 25.37 25.37"><defs><style>.cls-1{fill:#666;}</style></defs><title>vegano</title><path class="cls-1" d="M340,89.46a12.69,12.69,0,1,0,12.69,12.69A12.7,12.7,0,0,0,340,89.46Zm0,24.74A12.06,12.06,0,1,1,352,102.15,12.07,12.07,0,0,1,340,114.21Z" transform="translate(-327.3 -89.46)"/><path class="cls-1" d="M347.36,94.56c-0.2-.05-4.81-1.28-7.33,1.53a6.57,6.57,0,0,0-1.47,4.41,0.3,0.3,0,0,0,.56.17,6.39,6.39,0,0,1,2.2-2,11.59,11.59,0,0,0-2.76,4.56c-0.3.84-.69,2-0.94,2.79l-2.56-7.58,0-.09a0.75,0.75,0,0,0-.7-0.49h-1.13a0.78,0.78,0,0,0-.7,1.12c0.83,2.06,1.5,4,2.2,6l1.56,4.48a0.71,0.71,0,0,0,.75.57h1.27a0.75,0.75,0,0,0,.75-0.57l0.25-.68s1.57-4.34,2.12-5.88a7.66,7.66,0,0,0,3.35-2.22,15.79,15.79,0,0,0,2.84-5.77A0.3,0.3,0,0,0,347.36,94.56Zm-3.09,5.75a7.14,7.14,0,0,1-3.21,2.08,0.3,0.3,0,0,0-.19.19c-0.5,1.4-2.17,6-2.17,6l-0.24.66c-0.09.2-.09,0.2-0.19,0.2H337c-0.13,0-.13,0-0.18-0.16l-1.56-4.49c-0.71-2-1.37-4-2.23-6.07a0.2,0.2,0,0,1,0-.1c0-.13,0-0.16.18-0.16h1.13c0.08,0,.08,0,0.18.17l2.85,8.44a0.36,0.36,0,0,0,.29.2,0.3,0.3,0,0,0,.28-0.21s0.72-2.26,1.21-3.64c1.67-4.65,4.27-5.44,4.3-5.45a0.3,0.3,0,0,0,.21-0.35,0.29,0.29,0,0,0-.33-0.24,6.67,6.67,0,0,0-4.09,2.17,5.25,5.25,0,0,1,1.26-3.08c1.93-2.15,5.41-1.63,6.44-1.42A15.17,15.17,0,0,1,344.27,100.3Z" transform="translate(-327.3 -89.46)"/></svg>