<svg id="Layer_10" data-name="Layer 10" xmlns="http://www.w3.org/2000/svg" viewBox="0 0 25.37 25.37"><defs><style>.cls-1{fill:#666;}</style></defs><title>vegetariano</title><path class="cls-1" d="M269.95,98.06a1.56,1.56,0,0,0,.43-0.3l0.09-.1A2.29,2.29,0,0,0,271,96a1.1,1.1,0,0,0-.43-0.75,1.11,1.11,0,0,0-.76-0.2,1.52,1.52,0,0,0-1.34-1.22,1.19,1.19,0,0,0-.85.38,2.13,2.13,0,0,0-.49.83,1.1,1.1,0,0,0-.72.21l-0.12.1h0a1.75,1.75,0,0,0,.26,2.28,1.45,1.45,0,0,0,.49.38,2.27,2.27,0,0,0-1,.55,1.38,1.38,0,0,0-.43.92,29.66,29.66,0,0,0,1,7.19c0.46,1.7,1.14,3.73,1.84,3.73a0.57,0.57,0,0,0,.4-0.19c0.91-.92,2.4-6.31,2.38-10.73A1.66,1.66,0,0,0,269.95,98.06Zm-2.89-.78a1.23,1.23,0,0,1-.31-1.46l0,0a0.78,0.78,0,0,1,.82.09,2,2,0,0,1,.46-1.19,0.58,0.58,0,0,1,.41-0.19,1.34,1.34,0,0,1,.88,1.4,0.8,0.8,0,0,1,.86-0.11,1.15,1.15,0,0,1-.25,1.5l0,0a1.86,1.86,0,0,1-1.1.38v-1a0.31,0.31,0,1,0-.62,0v1A1.72,1.72,0,0,1,267.06,97.28Zm3.44,5.22h-1.58a0.31,0.31,0,0,0,0,.62h1.5c-0.46,3.23-1.41,6.07-1.9,6.65a13.74,13.74,0,0,1-1.44-4.07h1a0.31,0.31,0,1,0,0-.62h-1.15a29.44,29.44,0,0,1-.58-3.88h1.09a0.31,0.31,0,1,0,0-.62h-1.13c0-.35,0-0.7,0-1a0.8,0.8,0,0,1,.25-0.49,2.66,2.66,0,0,1,1.95-.55c2.14,0,2.2,1,2.2,1A24.16,24.16,0,0,1,270.5,102.49Z" transform="translate(-255.8 -89.46)"/><path class="cls-1" d="M268.48,114.84a12.69,12.69,0,1,1,12.69-12.69A12.7,12.7,0,0,1,268.48,114.84Zm0-24.74a12.06,12.06,0,1,0,12.06,12.06A12.07,12.07,0,0,0,268.48,90.09Z" transform="translate(-255.8 -89.46)"/></svg>