<svg id="Layer_12" data-name="Layer 12" xmlns="http://www.w3.org/2000/svg" viewBox="0 0 25.37 25.37"><defs><style>.cls-1{fill:#666;}</style></defs><title>sem-gluten</title><path class="cls-1" d="M129.23,105.23a0.48,0.48,0,0,0-.33-0.13h0a6.37,6.37,0,0,0-1,.14l-0.29.06,0.18-.23a5.2,5.2,0,0,0,1-3.18,0.5,0.5,0,0,0-.49-0.46h-0.05a5.59,5.59,0,0,0-.79.13l-0.31.07,0.25-.29,0.05-.06a4.5,4.5,0,0,0,.74-3.32,0.51,0.51,0,0,0-.21-0.32,0.47,0.47,0,0,0-.38-0.08,4.7,4.7,0,0,0-1.54.6l-0.29.18,0.15-.31a3.29,3.29,0,0,0,.33-1.33,4.38,4.38,0,0,0-1.35-2.92,0.51,0.51,0,0,0-.68,0,4.31,4.31,0,0,0-1.48,2.86A3.29,3.29,0,0,0,123,98l0.12,0.29-0.27-.16a5,5,0,0,0-1.49-.56,0.5,0.5,0,0,0-.38.07,0.48,0.48,0,0,0-.21.32,4.54,4.54,0,0,0,.73,3.32l0.05,0.06,0.25,0.29-0.31-.07a5.78,5.78,0,0,0-.8-0.13h0a0.5,0.5,0,0,0-.32.12,0.49,0.49,0,0,0-.17.34,5.17,5.17,0,0,0,1,3.18l0.18,0.23-0.29-.06a6.54,6.54,0,0,0-1-.14h0a0.49,0.49,0,0,0-.49.48,5.87,5.87,0,0,0,1.25,3.64,4.16,4.16,0,0,0,3.12,1.44,3.66,3.66,0,0,0,.55,0h0a3.66,3.66,0,0,0,.55,0,4.16,4.16,0,0,0,3.12-1.44,5.82,5.82,0,0,0,1.26-3.64A0.49,0.49,0,0,0,129.23,105.23ZM128.08,102l0.12,0v0.12a4.42,4.42,0,0,1-.9,2.69,4.17,4.17,0,0,1-2,1.19h-0.56v-0.1s0-.1,0-0.16A3.69,3.69,0,0,1,128.08,102Zm-3.62.68,0,0a0.46,0.46,0,0,0,.19,0,2.51,2.51,0,0,0,.4,0l0.25,0-0.15.19a4.19,4.19,0,0,0-.63,1.09l-0.1.24-0.1-.24a4.19,4.19,0,0,0-.63-1.09l-0.15-.19,0.25,0,0.26,0h0.14a0.48,0.48,0,0,0,.2,0Zm3-4.53,0.11,0v0.12a3.77,3.77,0,0,1-.64,2.68,2.94,2.94,0,0,1-2.12,1.28h-0.09v-0.1A3.49,3.49,0,0,1,127.49,98.16Zm-3.05-3.87,0.08-.07,0.07,0.08a3.06,3.06,0,0,1-.11,4.72l-0.08.08L124.33,99A3.06,3.06,0,0,1,124.43,94.29Zm-3.14,4V98.13l0.11,0a3.4,3.4,0,0,1,2.75,3.5v0.12c0,0.16,0,.27,0,0.34v0.09H124a2.94,2.94,0,0,1-2.11-1.28A3.74,3.74,0,0,1,121.3,98.25Zm-0.58,3.87V102l0.12,0a3.7,3.7,0,0,1,3.34,3.71h0v0q0,0.08,0,.14V106h-0.53a4.16,4.16,0,0,1-2-1.19A4.42,4.42,0,0,1,120.72,102.11Zm3.35,8h-0.18a3.62,3.62,0,0,1-2.71-1.26,5.08,5.08,0,0,1-1.1-3.06v-0.12h0.12a4.2,4.2,0,0,1,4,4.31v0.1h-0.1Zm0.39-1.76-0.1-.25a4.79,4.79,0,0,0-.8-1.36l-0.15-.18H124l0.44,0,0.46,0h0.58l-0.14.17a4.8,4.8,0,0,0-.79,1.35Zm4.37-2.55a5.07,5.07,0,0,1-1.1,3.06A3.62,3.62,0,0,1,125,110.1h-0.28V110a4.2,4.2,0,0,1,4-4.31h0.12v0.12Z" transform="translate(-111.77 -89.46)"/><polygon class="cls-1" points="2.54 19.79 2.22 19.25 7.86 15.88 8.19 16.41 2.54 19.79"/><rect class="cls-1" x="126.17" y="98.62" width="9.93" height="0.63" transform="translate(-143.94 -8.31) rotate(-30.82)"/><path class="cls-1" d="M124.46,114.84a12.69,12.69,0,1,1,12.69-12.69A12.7,12.7,0,0,1,124.46,114.84Zm0-24.74a12.06,12.06,0,1,0,12.06,12.06A12.07,12.07,0,0,0,124.46,90.09Z" transform="translate(-111.77 -89.46)"/><rect class="cls-1" x="112.92" y="105.46" width="8.35" height="0.63" transform="translate(-149.42 -14.53) rotate(-30.82)"/><polygon class="cls-1" points="16.28 10.2 15.96 9.66 22.83 5.58 23.15 6.12 16.28 10.2"/></svg>